# xmcd CD database file
#
# Track frame offsets:
#	151
#	17281
#	79212
#	113637
#	144926
#
# Disc length: 2308 seconds
#
# Revision: 0
# Processed by: cddbd v1.5.2PL0 Copyright (c) Steve Scherf et al.
# Submitted via: CDex 1.70beta2
#
DISCID=2e090205
DTITLE=Chuck Mangione - Tarantella Live
DYEAR=1981
DGENRE=Jazz
TTITLE0=Tarantellas
TTITLE1=The XIth Commandment Suite
TTITLE2=Legend Of The One-Eyed Sailor
TTITLE3=Bellavia
TTITLE4=Hill Where The Lord Hides
EXTD=YEAR: 1981
EXTT0=
EXTT1=
EXTT2=
EXTT3=
EXTT4=
PLAYORDER=
